<?xml version="1.0" encoding="UTF-8" standalone="no"?>
<!DOCTYPE svg PUBLIC "-//W3C//DTD SVG 1.1//EN" "http://www.w3.org/Graphics/SVG/1.1/DTD/svg11.dtd">
<svg width="100%" height="100%" viewBox="0 0 800 600" version="1.1" xmlns="http://www.w3.org/2000/svg" xmlns:xlink="http://www.w3.org/1999/xlink" xml:space="preserve" xmlns:serif="http://www.serif.com/" style="fill-rule:evenodd;clip-rule:evenodd;stroke-linejoin:round;stroke-miterlimit:2;">
    <g transform="matrix(0.5,0,0,1.5,0,0)">
        <g transform="matrix(2.213,0,0,0.819672,-170.401,-91.8033)">
            <rect x="77" y="112" width="723" height="488" style="fill:rgb(187,200,186);"/>
        </g>
        <g transform="matrix(1,0,0,1,6,-4)">
            <g transform="matrix(18.6667,0,0,6.22222,576,87.3333)">
                <rect x="0" y="0" width="24" height="24" style="fill:none;fill-rule:nonzero;"/>
            </g>
            <g transform="matrix(1,0,0,1,-12,12.4444)">
                <g transform="matrix(18.6667,0,0,6.22222,576,87.3333)">
                    <path d="M3,8C3,8.55 3.45,9 4,9C4.55,9 5,8.55 5,8L5,6L7,6C7.55,6 8,5.55 8,5C8,4.45 7.55,4 7,4L5,4L5,2C5,1.45 4.55,1 4,1C3.45,1 3,1.45 3,2L3,4L1,4C0.45,4 0,4.45 0,5C0,5.55 0.45,6 1,6L3,6L3,8Z" style="fill:white;fill-rule:nonzero;"/>
                </g>
                <g transform="matrix(18.6667,0,0,6.22222,576,87.3333)">
                    <circle cx="13" cy="14" r="3" style="fill:white;"/>
                </g>
                <g transform="matrix(18.6667,0,0,6.22222,576,87.3333)">
                    <path d="M21,6L17.83,6L16.59,4.65C16.22,4.24 15.68,4 15.12,4L8.72,4C8.89,4.3 9,4.63 9,5C9,6.1 8.1,7 7,7L6,7L6,8C6,9.1 5.1,10 4,10C3.63,10 3.3,9.89 3,9.72L3,20C3,21.1 3.9,22 5,22L21,22C22.1,22 23,21.1 23,20L23,8C23,6.9 22.1,6 21,6ZM13,19C10.24,19 8,16.76 8,14C8,11.24 10.24,9 13,9C15.76,9 18,11.24 18,14C18,16.76 15.76,19 13,19Z" style="fill:white;fill-rule:nonzero;"/>
                </g>
            </g>
        </g>
        <g transform="matrix(2,0,0,0.666667,-193.758,145.333)">
            <text x="300.862px" y="265.296px" style="font-family:'Comfortaa-Bold', 'Comfortaa';font-size:50px;fill:white;">A<tspan x="335.012px " y="265.296px ">d</tspan>d Ne<tspan x="491.312px " y="265.296px ">w</tspan> Photo</text>
        </g>
    </g>
</svg>
