<?xml version="1.0" encoding="utf-8"?>
<!-- Generator: Adobe Illustrator 16.0.0, SVG Export Plug-In . SVG Version: 6.00 Build 0)  -->
<!DOCTYPE svg PUBLIC "-//W3C//DTD SVG 1.1//EN" "http://www.w3.org/Graphics/SVG/1.1/DTD/svg11.dtd">
<svg version="1.1" id="Layer_1" xmlns="http://www.w3.org/2000/svg" xmlns:xlink="http://www.w3.org/1999/xlink" x="0px" y="0px"
	 width="1009.543px" height="839.643px" viewBox="0 0 1009.543 839.643" enable-background="new 0 0 1009.543 839.643"
	 xml:space="preserve">
<path opacity="0.1" fill="#16609D" enable-background="new    " d="M586.553,111.402c-64.719-2.25-126.358-23.14-185.219-46
	c-58.861-22.86-117.16-48.19-180.33-60.3c-40.63-7.79-87.1-8.89-119.83,12.89c-31.51,21-41.69,57.15-47.16,90.729
	c-4.12,25.26-6.54,51.85,4.74,75.49c7.84,16.42,21.74,30.22,31.36,45.95c33.47,54.72,9.81,122.2-26.45,175.63
	c-17,25.071-36.75,49.001-49.88,75.661c-13.13,26.66-19.2,57.25-7.71,84.469c11.38,27,38.51,47.24,67.9,61.49
	c59.69,28.951,130,37.229,198.61,41.92c151.83,10.391,304.459,5.891,456.69,1.391c56.34-1.67,112.92-3.358,168.34-12.069
	c30.777-4.841,62.551-12.511,84.898-31.052c28.359-23.528,35.393-63.368,16.379-92.879c-31.879-49.489-120-61.778-142.309-114.891
	c-12.26-29.24,0.33-61.8,18.16-88.92c38.24-58.16,102.33-109.19,105.699-175.67c2.32-45.66-28.49-91.39-76.131-113
	c-49.93-22.64-119.18-19.8-156,17.69C710.364,98.532,643.704,113.382,586.553,111.402z"/>
<ellipse opacity="0.1" fill="#16609D" enable-background="new    " cx="483.494" cy="780.993" rx="303.969" ry="41.12"/>
<path fill="#16609D" d="M333.014,658.572c0,0,21-3.359,33.602,11.479c0,0-9.24,7.279-29.12-2.801L333.014,658.572z"/>
<path fill="#16609D" d="M330.773,658.242c0,0-13.399,16.58-6.829,34.85c0,0,10.92-4.369,12.108-26.629L330.773,658.242z"/>
<path fill="#16609D" d="M318.773,631.133c0,0,8.399-15.399,42,6.16c0,0-4.479,10.359-19.319,9.52
	C326.614,645.974,322.644,639.252,318.773,631.133z"/>
<path fill="#16609D" d="M316.563,630.021c0,0-17.43-2-19.12,37.899c0,0,11.05,2.301,18.9-10.33
	C324.194,644.963,320.944,637.902,316.563,630.021z"/>
<path fill="#16609D" d="M306.404,598.203c0,0,9.8-27.17,45.369-7.853c0,0-8.119,24.933-41.729,17.093L306.404,598.203z"/>
<path fill="#16609D" d="M295.484,557.592c0,0,18.48-27.438,51.25-2c0,0-11.48,25.76-48.451,11.76L295.484,557.592z"/>
<path fill="#16609D" d="M291.564,518.953c0,0,21.56-25.201,54,0c0,0-20.449,22.119-54,6.438V518.953z"/>
<path fill="#16609D" d="M288.204,481.432c0,0,21.84-26.33,52.93-1.397c0,0-24.648,23.238-52.93,7.559V481.432z"/>
<path fill="#16609D" d="M290.164,448.102c0,0,23-33.88,52.09-10.92c0,0-24.65,29.131-52.09,17.361V448.102z"/>
<path fill="#16609D" d="M295.484,409.182c0,0,24.36-33.6,52.65-7.84c0,0-28.85,29.121-52.65,14V409.182z"/>
<path fill="#16609D" d="M303.614,374.392c0,0,28.831-31.57,54-19c0,0-30.062,33.53-55.26,27.37L303.614,374.392z"/>
<path fill="#16609D" d="M313.684,341.422c0,0,33.33-38.65,52.65-25.77c0,0-24.521,30-55,33.05L313.684,341.422z"/>
<path fill="#16609D" d="M328.234,303.162c0,0,29.14-31.58,50.42-23.74c0,0-24.92,32.77-54.33,33.61L328.234,303.162z"/>
<path fill="#16609D" d="M341.414,267.382c0,0,32.2-30.24,46.2-24.92c0,0-23.24,33.6-47.602,31.64L341.414,267.382z"/>
<path fill="#57BF98" d="M354.294,234.342c0,0,27.72-36.12,42.84-33.32c0,0-16.8,32.2-42.84,37V234.342z"/>
<path fill="#57BF98" d="M368.264,189.822c0,0,24.511-27.7,37.74-27.63c0,0-19.34,37-38.74,36.66L368.264,189.822z"/>
<path fill="#16609D" d="M376.554,160.132l23.66-57.68c0,0,1.19,52.14-26.68,68.38L376.554,160.132z"/>
<path fill="#16609D" d="M386.154,96.522c0,0,3.92-48.16,1.398-52.08c0,0,16.932,40-1.56,73.36L386.154,96.522z"/>
<path fill="#16609D" d="M305.494,597.553c0,0-24.55-15.211-40.43,22c0,0,21.84,14.5,43.31-12.51L305.494,597.553z"/>
<path fill="#16609D" d="M294.704,556.043c0,0-30.1-13.729-44.71,25.119c0,0,23.26,16,47.45-15.299L294.704,556.043z"/>
<path fill="#16609D" d="M290.164,521.262c0,0-21.56-25.198-54,0c0,0,20.44,22.121,54,6.441V521.262z"/>
<path fill="#16609D" d="M287.474,481.432c0,0-21.85-26.33-52.93-1.397c0,0,24.64,23.238,52.93,7.559V481.432z"/>
<path fill="#16609D" d="M290.164,449.063c0,0-15.32-37.949-48.62-21.631c0,0,18,33.66,47.27,27.933L290.164,449.063z"/>
<path fill="#16609D" d="M297.414,408.992c0,0-15.22-38.61-49-20.71c0,0,20.68,35.39,47.5,26.68L297.414,408.992z"/>
<path fill="#16609D" d="M306.854,374.592c0,0-6-42.34-33.95-46.13c0,0,5.93,44.64,30.22,53.75L306.854,374.592z"/>
<path fill="#16609D" d="M314.404,341.492c0,0-2.352-51-25.5-52.77c0,0,0.78,38.7,22.89,60L314.404,341.492z"/>
<path fill="#16609D" d="M330.644,301.702c0,0-6.908-42.4-29-47.59c0,0,2.74,41.07,26.81,58L330.644,301.702z"/>
<path fill="#16609D" d="M344.034,267.692c0,0-0.24-44.18-13.74-50.67c0,0-8.37,40,9.83,56.31L344.034,267.692z"/>
<path fill="#16609D" d="M355.324,233.822c0,0-1.9-45.5-15.87-51.91c0,0-4.79,36,13.77,54.88L355.324,233.822z"/>
<path fill="#16609D" d="M370.224,193.422c0,0-0.09-37-10.068-45.68c0,0-9.92,40.54,4.858,53.12L370.224,193.422z"/>
<path fill="#16609D" d="M375.374,158.312l-9.7-61.59c0,0-13.2,50.47,10.16,72.7L375.374,158.312z"/>
<path fill="#16609D" d="M377.273,97.102c0,0-24.931-41.39-24.409-46c0,0,2.64,43.4,34,65L377.273,97.102z"/>
<path fill="#16609D" d="M380.194,84.882c0,0-23.521-58.81-34.16-63.57c0,0,33.6,17.08,36.12,61.89L380.194,84.882z"/>
<path fill="#454154" d="M367.134,199.172l-1.609-0.49c19.851-64.73,24.811-106,13.949-116.34l1.16-1.22
	C392.134,92.032,387.474,132.822,367.134,199.172z"/>
<path fill="#454154" d="M312.474,350.692l-2.37-0.84c2.102-5.93,4.37-11.95,6.75-17.89c20.722-51.64,38.36-99.67,49.671-136.55
	l2.069-1c-11.33,36.95-28.648,86.83-49.398,138.53C316.824,338.822,314.563,344.822,312.474,350.692z"/>
<path fill="#454154" d="M362.563,707.021c-0.318-0.359-32.5-36.578-54.92-98.439c-13.146-36.203-20.471-74.262-21.7-112.76
	c-1.54-48.129,8.56-101.87,25.86-150.68l1.88,2.2c-38.83,109.562-23.398,203.451-2.938,260c22.2,61.291,54,97.131,54.318,97.48
	L362.563,707.021z"/>
<path fill="#3B3868" d="M645.094,289.822h4.279c1.266,0,2.291,1.025,2.291,2.29v68.44c0,1.265-1.025,2.29-2.291,2.29h-4.279
	c-1.266,0-2.291-1.025-2.291-2.29v-68.44C642.803,290.847,643.829,289.822,645.094,289.822z"/>
<path fill="#3B3868" d="M350.664,232.612h0.39c1.266,0,2.29,1.025,2.29,2.29v19.46c0,1.265-1.024,2.29-2.29,2.29h-0.39
	c-1.265,0-2.29-1.025-2.29-2.29v-19.46C348.374,233.637,349.399,232.612,350.664,232.612z"/>
<path fill="#16609D" d="M350.484,276.632h1.02c1.265,0,2.29,1.025,2.29,2.29v37.26c0,1.265-1.025,2.29-2.29,2.29h-1.02
	c-1.267,0-2.29-1.025-2.29-2.29v-37.26C348.194,277.657,349.219,276.632,350.484,276.632z"/>
<path fill="#3B3868" d="M350.574,333.112h0.75c1.265,0,2.29,1.025,2.29,2.29v37.62c0,1.265-1.025,2.29-2.29,2.29h-0.75
	c-1.266,0-2.29-1.025-2.29-2.29v-37.62C348.284,334.137,349.31,333.112,350.574,333.112z"/>
<path fill="#3B3868" d="M390.174,153.172h218.42c21.533,0,38.99,17.457,38.99,38.99v524.41c0,21.533-17.457,38.989-38.99,38.989
	h-218.42c-21.533,0-38.99-17.456-38.99-38.989v-524.41C351.184,170.628,368.641,153.172,390.174,153.172z"/>
<path fill="#16609D" d="M605.774,168.822h-34v4.09c0,10.703-8.678,19.38-19.383,19.38c-0.002,0-0.006,0-0.01,0H444.254
	c-10.703,0.005-19.385-8.667-19.39-19.37c0-0.003,0-0.007,0-0.01v-4.09h-31.83c-13.001,0-23.54,10.54-23.54,23.54l0,0v523.97
	c0,13.002,10.539,23.541,23.54,23.541h212.74c13,0,23.539-10.539,23.539-23.541v-523.93c0.021-13-10.498-23.558-23.498-23.58
	C605.801,168.822,605.788,168.822,605.774,168.822z"/>
<path fill="#E7E8EB" d="M474.664,171.162h33.649c2.139,0,3.869,1.732,3.869,3.87v0.66c0,2.137-1.73,3.87-3.871,3.87h-33.647
	c-2.138,0-3.87-1.733-3.87-3.87v-0.66C470.794,172.895,472.526,171.162,474.664,171.162z"/>
<circle fill="#E7E8EB" cx="523.213" cy="175.362" r="4.77"/>
<path fill="#16609D" d="M750.204,126.752c0,0-84.199-5.08-74.279,53.92c0,0-2,10.43,7.48,15.16c0,0,0.146-4.37,8.639-2.88
	c3.023,0.501,6.094,0.648,9.15,0.44c4.123-0.271,8.047-1.875,11.18-4.57l0,0c0,0,23.67-9.78,32.871-48.46
	c0,0,6.809-8.44,6.539-10.61l-14.209,6.07c0,0,4.857,10.25,1,18.77c0,0-0.461-18.4-3.191-18c-0.549,0.08-7.379,3.55-7.379,3.55
	s8.35,17.85,2.049,30.83c0,0,2.391-22-4.66-29.54l-10,5.84c0,0,9.762,18.44,3.141,33.49c0,0,1.701-23.08-5.25-32.07l-9.061,7.07
	c0,0,9.17,18.17,3.58,30.65c0,0-0.729-26.86-5.539-28.89c0,0-7.93,7-9.141,9.86c0,0,6.281,13.2,2.381,20.16c0,0-2.391-17.9-4.35-18
	c0,0-7.9,11.86-8.723,20c0,0,0.342-12.09,6.813-21.12c0,0-7.641,1.31-12.1,6.26c0,0,1.229-8.38,14.049-9.12c0,0,6.527-9,8.27-9.54
	c0,0-12.74-1.07-20.469,2.36c0,0,6.799-7.91,22.809-4.31l8.951-7.31c0,0-16.781-2.29-23.9,0.24c0,0,8.189-7,26.311-1.9l9.74-5.82
	c0,0-14.311-3.08-22.83-2c0,0,9-4.85,25.689,0.41l7-3.13c0,0-10.48-2.06-13.551-2.39c-3.068-0.33-3.229-1.17-3.229-1.17
	c6.639-1.107,13.455-0.349,19.688,2.19C735.674,133.192,750.454,127.682,750.204,126.752z"/>
<path fill="#16609D" d="M663.834,100.512c0,0-38-2.29-33.561,24.37c0,0-0.893,4.71,3.381,6.85c0,0,0.066-2,3.908-1.31
	c1.363,0.229,2.752,0.297,4.131,0.2c1.863-0.124,3.639-0.854,5.051-2.08l0,0c0,0,10.699-4.42,14.859-21.9c0,0,3.068-3.81,2.947-4.79
	l-6.42,2.74c0,0,2.191,4.63,0.473,8.48c0,0-0.213-8.31-1.439-8.12c-0.25,0-3.34,1.61-3.34,1.61s3.777,8.07,0.93,13.93
	c0,0,1.08-9.94-2.111-13.35l-4.52,2.68c0,0,4.41,8.33,1.42,15.13c0,0,0.77-10.43-2.369-14.49l-4.09,3.2c0,0,4.139,8.21,1.619,13.85
	c0,0-0.34-12.14-2.51-13.06c0,0-3.58,3.16-4.133,4.46c0,0,2.844,6,1.08,9.11c0,0-1.08-8.09-2-8.13c0,0-3.566,5.36-3.938,9
	c0.18-3.394,1.24-6.683,3.08-9.54c-2.063,0.39-3.961,1.374-5.473,2.83c0,0,0.563-3.79,6.354-4.12c0,0,3-4.07,3.74-4.32
	c0,0-5.764-0.48-9.25,1.07c0,0,3.066-3.57,10.299-1.95l4-3.3c0,0-7.59-1-10.799,0.11c0,0,3.697-3.16,11.889-0.86l4.4-2.63
	c0,0-6.473-1.39-10.32-0.89c0,0,4.07-2.19,11.611,0.18l3.146-1.41c0,0-4.74-0.93-6.129-1.08c-1.391-0.15-1.461-0.53-1.461-0.53
	c3.002-0.5,6.084-0.153,8.9,1C657.194,103.452,663.954,100.932,663.834,100.512z"/>
<rect x="395.914" y="226.182" opacity="0.1" fill="#010101" enable-background="new    " width="206.95" height="439.24"/>
<linearGradient id="SVGID_1_" gradientUnits="userSpaceOnUse" x1="491.2075" y1="596.9775" x2="698.0747" y2="596.9775" gradientTransform="matrix(1 0 0 1 -95.23 13.8242)">
	<stop  offset="0" style="stop-color:#818181;stop-opacity:0.25"/>
	<stop  offset="0.54" style="stop-color:#818181;stop-opacity:0.12"/>
	<stop  offset="1" style="stop-color:#818181;stop-opacity:0.1"/>
</linearGradient>
<path fill="url(#SVGID_1_)" d="M596.524,788.043c0,0-4.883-11.361-7.063-16.6c-1.229-3-3.309-3.5-4.898-3.433l0.092-1l0.389-4.729
	l0.08-1c3.77-0.791,7-1.41,7-1.41l-2.35-121.32c0,0-1-1.28-3.42-9c-1.199-3.85-7-8.58-12.422-12.35c-0.85-0.59-1.68-1.15-2.5-1.691
	c1.975-1.651,4.049-3.182,6.209-4.58c3.08-1.788,4.104-12,4.104-12l-0.51,1c0.51-1,0-27.067,0-27.067l-1.803-27.062
	c0,0-1.277-32.17-11.277-40.6c-10-8.432-22.631-11.381-22.631-11.381l-7-1.801l0,0l-12.9-3.31c-0.359-0.59-0.709-1.211-1-1.86
	c-0.129-0.25-0.25-0.511-0.369-0.771c7.996-5.662,12.75-14.852,12.75-24.65c0.002-1.62-0.129-3.237-0.391-4.84
	c0-0.299-0.109-0.608-0.17-0.91c1.061-0.725,2.063-1.53,3-2.409c1.525-1.218,2.773-2.748,3.658-4.488l0,0
	c0.141-0.342,0.254-0.693,0.342-1.051c0-0.101,0-0.199,0.061-0.312c0.059-0.108,0.09-0.528,0.119-0.799c0-0.1,0-0.201,0-0.301
	c0-0.289,0-0.59,0-0.879c0-0.07,0-0.142,0-0.222c0-0.329-0.049-0.659-0.1-1c0.004-0.02,0.004-0.041,0-0.061l0,0
	c-0.186-1.16-0.484-2.301-0.9-3.4c-1-2.58-2.299-5-2.771-7.75c-0.578-3.25,0.092-6.799-1.461-9.719
	c-1.303-2.236-3.533-3.772-6.09-4.19c-2.537-0.392-5.135-0.095-7.52,0.859c-1.166,0.556-2.424,0.895-3.709,1.001
	c-0.938-0.055-1.855-0.279-2.711-0.661c-2.969-1.164-5.789-2.679-8.4-4.51c-1.879-1.482-3.885-2.795-5.999-3.92
	c-2.148-1.122-4.688-1.225-6.92-0.28c-3.7,1.88-4.4,7.12-7.84,9.431c-2.37,1.602-5.46,1.44-8.32,1.541
	c-2.86,0.1-6.1,0.811-7.51,3.288c-1,1.722-0.761,3.771-0.57,5.781l0.061,0.681c0,0.239,0,0.489,0.061,0.729
	c0.157,2.57-0.228,5.146-1.13,7.559c-1.38,3.66-4,7.271-3.91,11l0,0c0.008,0.595,0.085,1.187,0.229,1.763
	c0.079,0.287,0.172,0.569,0.279,0.85l0,0c0.552,1.236,1.168,2.441,1.852,3.609l0.09,0.16c0.069,0.141,0.14,0.278,0.2,0.42
	c0.06,0.141,0.18,0.381,0.25,0.569c0.068,0.189,0.079,0.189,0.108,0.279c0.03,0.09,0.131,0.371,0.181,0.562
	c0.165,0.563,0.235,1.151,0.211,1.739c-0.118,0.758-0.183,1.523-0.19,2.289c0.007,0.791,0.565,1.472,1.34,1.631
	c0.413-0.01,0.814-0.135,1.16-0.358c0.897-0.513,1.75-1.099,2.55-1.75c0,0.317,0,0.639,0.062,1c0.696,7.156,3.918,13.832,9.09,18.83
	c0,0.309,0,0.629-0.07,1c-0.069,0.369-0.05,0.719-0.069,1.09l0,0l-11.199,3.52c0,0,0.06,0.199,0.18,0.539l-1.18,0.472l0,0
	c-5.812,2.35-12.28,5.27-15.9,7.92c-1.6,1.159-3.06,2.108-4.37,2.899c-4.756,2.91-8.402,7.328-10.359,12.549l-0.149,0.381
	c-1,2.289-5.899,17.869-5.899,17.869s-3.591,8.683-4.109,14.302c0,0-5.9,18.631-4.36,30.891c0,0-4.62,17.619-2.819,20.42
	c0,0-1.84,7.58,6.239,15.209c-0.59,0.361-1.229,0.75-1.899,1.18c-6.26,3.941-15.29,10.33-16.829,15.263c-2.391,7.67-3.421,9-3.421,9
	l-2.419,121.129c0,0,3.229,0.621,7,1.399l0.08,1l0.39,4.722l0.09,1c-1.59-0.07-3.67,0.479-4.899,3.438c-2.189,5.23-7,16.58-7,16.58
	s-10.771,10-4.239,19.279c0.287,0.424,0.623,0.813,1,1.16c4.688,4.26,14.688,1.528,21.8-1.25c3.613-1.541,6.729-4.056,9-7.261
	c0.579-0.76,1.449-1.241,2.4-1.33c1.63-0.264,3.168-0.934,4.47-1.948c1.591-1.162,2.511-3.031,2.46-5
	c-0.005-0.052-0.005-0.103,0-0.15l-0.63-14.229c0,0-0.771-9.939-3.221-9.302l-0.631,0.15l-0.17-1l0,0l-0.33-1.93l-0.17-1h1.36
	c0,0,0.34-11.24,4.45-20.08c4.108-8.84,6.81-80.25,6.81-80.25s50.87,0.83,52.57-3.939l0,0c1,0,2.09,0,3.13-0.069
	c1.71,4.77,49.719,5,49.719,5s2.73,71.489,6.83,80.34c0.865,1.896,1.584,3.854,2.15,5.858l0,0c1.289,4.64,2.064,9.404,2.309,14.211
	h1.361l-0.18,1l-0.33,1.92l-0.17,1l-0.65-0.149c-2.43-0.629-3.201,9.311-3.201,9.311l-0.646,14.32c-0.105,1.961,0.791,3.842,2.379,5
	c1.324,1.039,2.889,1.727,4.551,2c0.951,0.076,1.824,0.557,2.398,1.318c2.273,3.202,5.389,5.717,9,7.262
	c7.682,3,18.721,5.93,22.818,0.1C607.293,798.002,596.524,788.043,596.524,788.043z M467.224,609.703L467.224,609.703h0.12H467.224z
	 M547.575,568.822c0,0,1.289,4.85,3.59,7.399c2.299,2.552,1.16,18.392,1.16,18.392c-0.906,0.057-1.803,0.201-2.684,0.43
	C547.874,584.512,546.245,572.822,547.575,568.822z"/>
<polygon fill="#8E6F80" points="436.964,768.432 416.854,770.432 416.294,763.703 415.904,759.072 415.354,752.303 434.354,753.303 
	435.864,761.992 436.184,763.883 436.194,763.883 "/>
<polygon fill="#8E6F80" points="583.415,753.313 582.864,760.072 582.485,764.703 581.915,771.432 561.793,769.432 562.594,764.883 
	562.905,763.002 564.415,754.313 "/>
<path fill="#605671" d="M562.104,655.922l-59.8,2.812c-2.72,0.133-5.438,0.133-8.16,0l-57.13-2.802v-45.26h125.09V655.922z"/>
<path opacity="0.1" fill="#010101" enable-background="new    " d="M562.104,655.922l-59.8,2.812c-2.72,0.133-5.438,0.133-8.16,0
	l-57.13-2.802v-45.26h125.09V655.922z"/>
<path fill="#EAEAF2" d="M485.523,488.732c0,0-19.921,6.688-27.421,12.188c-1.56,1.141-3,2.08-4.26,2.851
	c-4.632,2.856-8.177,7.18-10.069,12.28c-0.051,0.142-0.101,0.261-0.149,0.369c-1,2.25-5.75,17.5-5.75,17.5s-3.5,8.5-4,14
	s28.5,20.25,28.5,20.25s-14,30.5-7.75,38.25s97.5,11.5,95.5,0s-5.5-30.5-3.75-35.75l31-22.5c0,0-1.25-31.5-11-39.75
	s-22-11.25-22-11.25l-19.41-5c0,0-6.84,17-14.34,19.25C503.124,513.672,486.694,503.283,485.523,488.732z"/>
<path opacity="0.1" fill="#010101" enable-background="new    " d="M513.504,517.363c0,0-8.46,7.059-12.9,0c0,0-4,11.938,0,15.938
	l-0.149,0.812l-0.71,3.559l-9.261,77l7.62,13.15l13.869-17.4l-1.119-72l-0.5-4.129l-0.119-1h2.369
	C512.604,533.293,518.893,522.422,513.504,517.363z"/>
<path opacity="0.1" fill="#010101" enable-background="new    " d="M515.504,517.363c0,0-8.461,7.059-12.9,0c0,0-4,11.938,0,15.938
	l-0.149,0.812l-0.71,3.559l-9.261,77l7.62,13.15l13.869-17.4l-1.119-72l-0.5-4.129l-0.119-1h2.369
	C514.604,533.293,520.893,522.422,515.504,517.363z"/>
<polygon fill="#BC8487" points="512.973,609.432 499.104,626.803 491.464,613.723 500.734,536.682 501.444,533.123 501.604,532.303 
	502.854,529.063 511.235,532.303 511.354,533.303 511.854,537.432 "/>
<path opacity="0.1" fill="#010101" enable-background="new    " d="M435.864,761.982c-4.315-0.027-8.618-0.468-12.852-1.312
	c-2.09-0.52-4.71-1.1-7.1-1.608l-0.562-6.771l19,1L435.864,761.982z"/>
<path fill="#605671" d="M499.254,658.822c-1.66,4.67-51.24,3.85-51.24,3.85s-2.66,70-6.66,78.67s-4.34,19.66-4.34,19.66
	s-8.66,0-14-1.33s-14-3-14-3l2.34-118.75c0,0,1-1.25,3.33-8.76c1.5-4.83,10.301-11.09,16.392-15
	c3.398-2.142,5.938-3.539,5.938-3.539l29.58,1.199l18.26,0.739C484.854,612.563,500.924,654.152,499.254,658.822z"/>
<path opacity="0.1" fill="#010101" enable-background="new    " d="M436.974,768.422l-20.12,2l-0.568-6.729
	c0.753,0.02,1.496,0.184,2.188,0.479c3.67,2.641,14.16,0.541,17.71-0.299l0,0L436.974,768.422z"/>
<path fill="#BC8487" d="M440.773,787.873c0.049,1.926-0.854,3.754-2.409,4.889c-1.268,0.994-2.764,1.65-4.352,1.91
	c-0.927,0.08-1.774,0.553-2.33,1.301c-2.223,3.136-5.268,5.597-8.8,7.109c-6.93,2.721-16.68,5.391-21.25,1.221
	c-0.377-0.336-0.713-0.715-1-1.131c-6.37-9.119,4.13-18.879,4.13-18.879s4.74-11.121,6.87-16.24
	c0.904-2.608,3.752-3.992,6.361-3.088c0.173,0.06,0.343,0.129,0.509,0.207c4,2.881,16.13,0.121,18.5-0.49
	c2.37-0.608,3.13,9.111,3.13,9.111l0.641,13.93C440.769,787.771,440.769,787.822,440.773,787.873z"/>
<path opacity="0.1" fill="#010101" enable-background="new    " d="M583.424,753.303l-0.561,6.76c-2.393,0.511-5,1.091-7.109,1.609
	c-4.229,0.846-8.527,1.287-12.84,1.32l1.51-8.689L583.424,753.303z"/>
<path fill="#605671" d="M589.774,757.672c0,0-8.66,1.67-14,3c-5.342,1.33-14,1.33-14,1.33s-0.33-11-4.33-19.66
	s-6.67-78.67-6.67-78.67s-46.78-0.27-48.45-4.938s20.389-45,20.389-45l13.451-0.699l25.609-1.361c0,0,5,2.722,10.238,6.392
	c5.24,3.67,10.932,8.33,12.102,12.1c2.33,7.51,3.33,8.76,3.33,8.76L589.774,757.672z"/>
<path opacity="0.1" fill="#010101" enable-background="new    " d="M582.485,764.693l-0.563,6.729l-20.131-2l0.801-4.549
	c3.551,0.85,14,2.939,17.699,0.299C580.987,764.877,581.731,764.713,582.485,764.693z"/>
<path fill="#BC8487" d="M580.293,766.172c2.492-1.188,5.477-0.133,6.666,2.359c0.082,0.17,0.152,0.344,0.215,0.521
	c2.119,5.119,6.869,16.25,6.869,16.25s10.5,9.75,4.131,18.869c-4,5.721-14.76,2.851-22.24-0.09
	c-3.535-1.508-6.582-3.971-8.801-7.109c-0.557-0.748-1.408-1.223-2.34-1.301c-1.625-0.283-3.15-0.971-4.439-2
	c-1.537-1.137-2.404-2.969-2.311-4.879l0.631-14c0,0,0.75-9.73,3.119-9.121C564.165,766.283,576.293,769.053,580.293,766.172z"/>
<path fill="#F9C3D0" d="M528.604,497.172l-20.189,21.4l-0.561,0.6l-0.73-0.43c-4.218-2.5-25.329-15.24-23.52-19.07
	c1-2.18,1.592-6.719,1.9-10.629c0-0.471,0.061-0.93,0.1-1.381c0.2-3.09,0.25-5.49,0.25-5.49s38-6.5,36.5,0
	c-0.609,2.631,0.301,5.59,1.59,8.18c0.381,0.75,0.801,1.461,1.211,2.132C526.165,494.145,527.319,495.713,528.604,497.172z"/>
<path opacity="0.1" fill="#010101" enable-background="new    " d="M523.944,490.352c-11.709,8.632-27.95,7.49-38.341-2.688
	c0.2-3.09,0.25-5.49,0.25-5.49s38.001-6.5,36.501,0C521.774,484.822,522.655,487.762,523.944,490.352z"/>
<path fill="#F9C3D0" d="M536.014,465.463c0.232,16.385-12.859,29.855-29.244,30.09c-15.619,0.224-28.734-11.701-29.997-27.27
	c-0.079-0.935-0.119-1.875-0.119-2.82c-0.302-16.385,12.736-29.908,29.12-30.209c16.385-0.301,29.91,12.736,30.211,29.119
	c0.006,0.363,0.006,0.727,0,1.09H536.014z"/>
<path opacity="0.1" fill="#010101" enable-background="new    " d="M535.643,460.723c-1.561,1.271-3.59,1.82-5.58,1.511
	c-4.578-1-6.148-8-10.828-8.48c-4.682-0.479-7.791,6-12.531,5.871c-2-0.051-3.798-1.361-5.639-2.271
	c-3.221-1.59-8.521-2.559-12-1.358c-5.229,1.791-7,6.631-10.341,10.479c-0.569,0.656-1.195,1.263-1.87,1.812
	c-0.079-0.935-0.119-1.875-0.119-2.82c-0.148-16.387,13.015-29.789,29.399-29.938c14.762-0.136,27.377,10.604,29.6,25.196
	L535.643,460.723L535.643,460.723z"/>
<path fill="#8E6F80" d="M501.063,456.363c1.842,0.897,3.602,2.219,5.641,2.27c4.729,0.119,7.82-6.391,12.518-5.881
	c4.701,0.51,6.25,7.451,10.854,8.48c3.09,0.698,6-1.609,8.309-3.761c1.494-1.188,2.711-2.688,3.57-4.391
	c1-2.48,0.479-5.34-0.449-7.859c-0.93-2.519-2.24-4.938-2.701-7.59c-0.559-3.18,0.09-6.66-1.42-9.52
	c-1.264-2.189-3.445-3.693-5.939-4.103c-2.473-0.383-5.004-0.096-7.33,0.83c-1.133,0.551-2.355,0.889-3.609,1
	c-0.916-0.055-1.813-0.274-2.648-0.647c-2.895-1.142-5.641-2.621-8.182-4.41c-1.822-1.456-3.773-2.741-5.83-3.841
	c-2.092-1.1-4.565-1.198-6.739-0.271c-3.601,1.84-4.29,7-7.641,9.23c-2.31,1.561-5.32,1.399-8.1,1.51
	c-2.78,0.111-6,0.781-7.32,3.211c-1.18,2.09-0.59,4.66-0.439,7.049c0.148,2.519-0.229,5.039-1.109,7.4
	c-1.55,4.141-4.7,8.221-3.58,12.5c0.729,2.811,3.25,5.141,3.1,8c-0.117,0.737-0.182,1.481-0.188,2.229
	c0.007,0.775,0.552,1.439,1.31,1.601c0.401-0.007,0.791-0.132,1.12-0.359c1.662-0.93,3.154-2.139,4.41-3.57
	c3.38-3.858,5.13-8.688,10.359-10.479C492.554,453.822,497.844,454.762,501.063,456.363z"/>
<path fill="#F9C3D0" d="M535.473,630.922l-5.398,1.471l-12.471,3.431c-2.887,2.149-6.135,3.766-9.59,4.77
	c-7.63,1.931-12.56-2.27-16.661-8.77c-1.648-2.601-0.818-4.681,1.342-6.312c5.198-3.93,18.059-5.209,21.999-4.688
	c2.588,0.211,5.189-0.193,7.59-1.181c1.705-0.62,3.35-1.396,4.91-2.319L535.473,630.922z"/>
<path opacity="0.1" fill="#010101" enable-background="new    " d="M535.473,630.922l-5.398,1.471
	c-1.551-4.67-4.102-10.528-7.75-12.778c1.703-0.621,3.348-1.398,4.91-2.32L535.473,630.922z"/>
<path opacity="0.1" fill="#010101" enable-background="new    " d="M571.995,618.063c-2.24,1.812-4.141,3.459-4.141,3.459
	s-26,8.15-31,18.4c0,0-4-20-12.5-20.25c0,0,9.148-3.59,11.787-6.66l25.633-1.34C561.774,611.672,566.774,614.393,571.995,618.063z"
	/>
<path fill="#EAEAF2" d="M571.604,539.672l5.75,8.5l1.75,26.5c0,0,0.5,25.5,0,26.5l0.5-1c0,0-1,10-4,11.75s-9.75,7.6-9.75,7.6
	s-26,8.15-31,18.4c0,0-4-20-12.5-20.25c0,0,12.75-5,12.5-8.25c0,0,9.75-8.75,10.5-11s5.619-2.5,5.619-2.5s1.131-15.5-1.119-18
	s-3.5-7.25-3.5-7.25L571.604,539.672z"/>
<path opacity="0.1" fill="#010101" enable-background="new    " d="M508.014,640.563c-7.63,1.931-12.56-2.27-16.661-8.77
	c-1.648-2.6-0.818-4.68,1.342-6.311l0.778,0.311C493.474,625.793,507.223,631.752,508.014,640.563z"/>
<path fill="#F9C3D0" d="M504.854,648.553c-9,12.5-25.75-4.881-27-8.381c-0.448-1.27-2.158-2.4-4.13-3.309
	c-2.499-1.095-5.093-1.953-7.75-2.57l14.88-12.121l2.852,1.141l8.77,3.511C492.474,626.822,513.854,636.053,504.854,648.553z"/>
<path opacity="0.1" fill="#010101" enable-background="new    " d="M483.704,623.313c-8.2,3.9-9.95,9.511-10,13.552
	c-2.499-1.095-5.094-1.953-7.75-2.57l14.88-12.121L483.704,623.313z"/>
<path opacity="0.1" fill="#010101" enable-background="new    " d="M470.604,644.922c0,0-24-19-35.5-27.25
	c-1.438-1.025-2.777-2.184-4-3.459c3.4-2.141,5.94-3.541,5.94-3.541l29.58,1.201c0.79,1.369,1.26,2.299,1.26,2.299l16,10.5
	C464.604,630.922,470.604,644.922,470.604,644.922z"/>
<path fill="#EAEAF2" d="M438.604,545.172l-4.75,2.75c0,0-5.75,18.25-4.25,30.25c0,0-4.5,17.25-2.75,20c0,0-2.25,9.25,9.25,17.5
	s35.5,27.25,35.5,27.25s-6-14,13.25-20.25l-16-10.5c0,0-5.368-10.66-10.5-13c0,0-4-4-1.5-6.75s4.5-5.75,4.5-8.5s1-15.75,1-15.75
	l3-14L438.604,545.172z"/>
<path opacity="0.1" fill="#010101" enable-background="new    " d="M511.354,533.293h-9.75c-0.059-0.055-0.111-0.115-0.158-0.18
	l0.158-0.82l1.25-3.24l8.381,3.24L511.354,533.293z"/>
<path fill="#BC8487" d="M514.504,516.363c0,0-8.461,7.059-12.9,0c0,0-4,11.938,0,15.938h12
	C513.604,532.303,519.893,521.422,514.504,516.363z"/>
<path opacity="0.1" fill="#010101" enable-background="new    " d="M525.944,493.172l12.6,3.25c0,0-11.939,31-14.57,31l-15.119-7.25
	L525.944,493.172z"/>
<path opacity="0.1" fill="#010101" enable-background="new    " d="M528.604,497.172l-20.189,21.4l-0.561,0.6l-0.73-0.43
	l17.65-26.92l0.43,0.711C526.2,494.176,527.338,495.729,528.604,497.172z"/>
<path fill="#EAEAF2" d="M524.944,492.172l12.6,3.25c0,0-11.939,31-14.57,31l-15.119-7.25L524.944,492.172z"/>
<path opacity="0.1" fill="#010101" enable-background="new    " d="M484.523,489.732l-10.921,3.438c0,0,10.75,32.5,13.75,34.25
	l19.5-7.25L484.523,489.732z"/>
<path opacity="0.1" fill="#010101" enable-background="new    " d="M508.415,518.572l-0.563,0.6c0,0-26.25-15.25-24.25-19.5
	c1-2.18,1.592-6.719,1.9-10.629v-0.611L508.415,518.572z"/>
<path fill="#EAEAF2" d="M485.523,488.732l-10.921,3.438c0,0,10.75,32.5,13.75,34.25l19.5-7.25L485.523,488.732z"/>
<path opacity="0.1" fill="#010101" enable-background="new    " d="M459.514,541.822c0,0,6.58,1.17,6.46,8s2.71-8.83,2.71-8.83
	L459.514,541.822z"/>
<path opacity="0.1" fill="#010101" enable-background="new    " d="M461.014,562.822c0,0-1.83,10.33,0,19.67s1.67,12.5,3.09,13
	C465.524,595.992,461.014,562.822,461.014,562.822z"/>
<path opacity="0.1" fill="#010101" enable-background="new    " d="M545.014,561.822c-1.984,0.252-3.387,2.063-3.137,4.047
	c0.027,0.211,0.072,0.42,0.137,0.623C542.854,570.672,545.014,561.822,545.014,561.822z"/>
<path opacity="0.1" fill="#010101" enable-background="new    " d="M430.684,596.822c0,0,21.432-1.83,25,2
	C459.254,602.652,430.684,596.822,430.684,596.822z"/>
<path opacity="0.1" fill="#010101" enable-background="new    " d="M555.014,598.271c0,0,15.67-1.931,19.34,0.739"/>
<path opacity="0.1" fill="#010101" enable-background="new    " d="M561.354,600.822c0,0,9.33,0.33,11.5,1.5"/>
<path opacity="0.1" fill="#010101" enable-background="new    " d="M563.184,604.172c0,0,8.5-0.33,9.67,1"/>
<path opacity="0.1" fill="#010101" enable-background="new    " d="M443.313,651.172c0,0,7.28,3.791,6.54,7.66
	C449.114,662.703,443.313,651.172,443.313,651.172z"/>
<path opacity="0.1" fill="#010101" enable-background="new    " d="M437.014,653.012c0,0,11.11,14.41,9.602,19.16
	C445.104,676.922,437.014,653.012,437.014,653.012z"/>
<path opacity="0.1" fill="#010101" enable-background="new    " d="M556.104,655.402c0,0-5.5,4.528-5.35,8.27"/>
<path opacity="0.1" fill="#010101" enable-background="new    " d="M429.104,744.672c0,0,0,4.25,7.87,10.5"/>
<path opacity="0.1" fill="#010101" enable-background="new    " d="M568.014,734.672c0,0-0.84,8.84-8.5,13.42"/>
<g opacity="0.1">
	<path fill="#010101" d="M473.604,434.633c0-0.688-0.118-1.399-0.18-2.1c-0.127,1.524-0.08,3.063,0.141,4.58
		C473.632,436.287,473.646,435.459,473.604,434.633z"/>
	<path fill="#010101" d="M472.014,462.572c0.15-2.9-2.37-5.23-3.1-8c-0.037-0.136-0.064-0.271-0.08-0.41
		c-0.229,1.129-0.201,2.293,0.08,3.41c0.59,2.291,2.37,4.25,2.93,6.471C471.894,463.521,471.994,463.053,472.014,462.572z"/>
	<path fill="#010101" d="M541.954,450.082c-0.861,1.703-2.08,3.199-3.57,4.391c-2.33,2.15-5.219,4.459-8.309,3.761
		c-4.59-1-6.17-8-10.854-8.48c-4.68-0.479-7.789,6-12.518,5.871c-2-0.051-3.799-1.361-5.641-2.271c-3.22-1.59-8.51-2.559-12-1.358
		c-5.229,1.791-7,6.631-10.358,10.479c-1.254,1.435-2.742,2.644-4.4,3.58c-0.336,0.222-0.728,0.343-1.13,0.351
		c-0.512-0.068-0.941-0.416-1.12-0.9v0.07c-0.118,0.742-0.182,1.49-0.188,2.24c0.011,0.771,0.555,1.432,1.31,1.59
		c0.402-0.008,0.794-0.129,1.13-0.351c1.658-0.938,3.146-2.146,4.4-3.58c3.38-3.85,5.13-8.688,10.359-10.479
		c3.529-1.199,8.819-0.23,12,1.358c1.841,0.91,3.601,2.222,5.639,2.271c4.73,0.119,7.82-6.391,12.52-5.871
		c4.701,0.521,6.262,7.441,10.852,8.48c3.09,0.698,6-1.609,8.309-3.761c1.49-1.19,2.709-2.688,3.57-4.391
		c0.557-1.445,0.707-3.016,0.43-4.539C542.299,449.07,542.155,449.588,541.954,450.082z"/>
</g>
<path opacity="0.1" fill="#010101" enable-background="new    " d="M404.773,784.303c0,0,8.171-2.52,11.561,2.26"/>
<path opacity="0.1" fill="#010101" enable-background="new    " d="M594.043,785.303c0,0-13.529-0.791-13,2.869"/>
<ellipse opacity="0.1" fill="#16609D" enable-background="new    " cx="864.174" cy="773.343" rx="26.93" ry="4.55"/>
<ellipse opacity="0.1" fill="#16609D" enable-background="new    " cx="91.094" cy="810.683" rx="26.93" ry="4.55"/>
<ellipse opacity="0.1" fill="#16609D" enable-background="new    " cx="195.264" cy="835.093" rx="26.93" ry="4.55"/>
<ellipse fill="#16609D" cx="805.223" cy="822.103" rx="40.211" ry="6.8"/>
<path fill="#16609D" d="M821.854,810.982c1.832-1.498,3.168-3.519,3.83-5.789c0.5-2.291-0.48-5-2.68-5.892
	c-2.461-0.938-5.09,0.771-7.08,2.49c-1.99,1.719-4.281,3.689-6.891,3.32c2.73-2.474,3.967-6.197,3.25-9.812
	c-0.117-0.735-0.434-1.428-0.91-2c-1.359-1.461-3.84-0.84-5.469,0.32c-5.201,3.648-6.65,10.719-6.684,17.07
	c-0.527-2.291-0.08-4.683-0.1-7c-0.02-2.32-0.65-5-2.639-6.23c-1.229-0.66-2.607-0.984-4-0.94c-2.342-0.091-4.941,0.149-6.541,1.86
	c-2,2.119-1.459,5.681,0.26,8c1.721,2.32,4.35,3.812,6.77,5.42c1.939,1.154,3.59,2.73,4.83,4.609c0.15,0.264,0.271,0.541,0.361,0.83
	h14.609C816.069,815.574,819.124,813.469,821.854,810.982z"/>
<path fill="#16609D" d="M196.654,723.271c0,0,5.5,7.19-2.53,18c-8.03,10.811-14.65,20-12,26.771c0,0,12.12-20.15,22-20.43
	C214.004,747.332,207.504,735.393,196.654,723.271z"/>
<path opacity="0.1" fill="#010101" enable-background="new    " d="M196.654,723.271c0.479,0.696,0.857,1.456,1.12,2.262
	c9.62,11.299,14.75,21.85,5.5,22.108c-8.61,0.25-18.94,15.65-21.42,19.539c0.08,0.302,0.18,0.591,0.29,0.892
	c0,0,12.12-20.15,22-20.431C214.024,747.363,207.504,735.393,196.654,723.271z"/>
<path fill="#FFD139" d="M206.864,732.432c0,2.531-0.28,4.58-0.63,4.58s-0.63-2.049-0.63-4.58c0-2.528,0.35-1.34,0.7-1.34
	C206.654,731.092,206.864,729.902,206.864,732.432z"/>
<path fill="#FFD139" d="M210.374,735.453c-2.22,1.209-4.16,1.938-4.32,1.629c-0.16-0.311,1.49-1.539,3.71-2.75
	c2.22-1.209,1.35-0.33,1.51,0S212.594,734.242,210.374,735.453z"/>
<path fill="#16609D" d="M167.644,723.271c0,0-5.5,7.19,2.53,18c8.03,10.811,14.65,20,12,26.771c0,0-12.11-20.15-22-20.43
	C150.284,747.332,156.774,735.393,167.644,723.271z"/>
<path opacity="0.1" fill="#010101" enable-background="new    " d="M167.644,723.271c-0.481,0.696-0.862,1.459-1.13,2.262
	c-9.62,11.299-14.74,21.85-5.5,22.108c8.62,0.25,18.95,15.65,21.43,19.539c-0.082,0.304-0.182,0.601-0.3,0.892
	c0,0-12.11-20.15-22-20.431C150.254,747.363,156.774,735.393,167.644,723.271z"/>
<path fill="#FFD139" d="M157.424,732.432c0,2.531,0.29,4.58,0.64,4.58s0.63-2.049,0.63-4.58c0-2.528-0.35-1.34-0.7-1.34
	C157.644,731.092,157.424,729.902,157.424,732.432z"/>
<path fill="#FFD139" d="M153.924,735.453c2.22,1.209,4.15,1.938,4.32,1.629c0.17-0.311-1.5-1.539-3.72-2.75
	c-2.22-1.209-1.34-0.33-1.51,0C152.844,734.662,151.704,734.242,153.924,735.453z"/>
<path fill="#A9A8A8" d="M159.174,767.133c0,0,15.36-0.479,20-3.77c4.64-3.291,23.63-7.24,24.77-1.951
	c1.14,5.291,23.09,26.291,5.75,26.43c-17.34,0.142-40.3-2.699-44.92-5.51C160.154,779.521,159.174,767.133,159.174,767.133z"/>
<path opacity="0.2" fill="#010101" enable-background="new    " d="M209.994,786.002c-17.34,0.141-40.3-2.699-44.92-5.51
	c-3.51-2.15-4.92-9.84-5.39-13.379h-0.51c0,0,1,12.379,5.59,15.198c4.59,2.82,27.58,5.65,44.92,5.511c5,0,6.73-1.82,6.64-4.459
	C215.624,784.982,213.714,785.973,209.994,786.002z"/>
</svg>
