<?xml version="1.0" encoding="UTF-8" standalone="no"?>
<!DOCTYPE svg PUBLIC "-//W3C//DTD SVG 1.1//EN" "http://www.w3.org/Graphics/SVG/1.1/DTD/svg11.dtd">
<svg width="100%" height="100%" viewBox="0 0 800 600" version="1.1" xmlns="http://www.w3.org/2000/svg" xmlns:xlink="http://www.w3.org/1999/xlink" xml:space="preserve" xmlns:serif="http://www.serif.com/" style="fill-rule:evenodd;clip-rule:evenodd;stroke-linejoin:round;stroke-miterlimit:2;">
    <g transform="matrix(0.5,0,0,1.5,0,0)">
        <g transform="matrix(2.213,0,0,0.819672,-170.401,-91.8033)">
            <rect x="77" y="112" width="723" height="488" style="fill:rgb(209,223,205);"/>
        </g>
        <g transform="matrix(1.22516,0,0,0.408385,800,200)">
            <g transform="matrix(1,0,0,1,-408.111,-350.298)">
                <clipPath id="_clip1">
                    <rect x="0" y="0" width="816.222" height="700.597"/>
                </clipPath>
                <g clip-path="url(#_clip1)">
                    <g transform="matrix(1,0,0,1,-191.889,-99.7015)">
                        <path d="M772.021,797.895C766.166,797.89 760.406,796.408 755.275,793.587L278.867,533.041C262.039,523.813 255.763,502.388 264.953,485.539L466.001,117.924C472.131,106.714 483.931,99.718 496.708,99.718C502.577,99.718 508.353,101.194 513.502,104.01L989.911,364.556C1006.74,373.784 1013.01,395.209 1003.82,412.058L802.777,779.673C798.345,787.831 790.825,793.882 781.908,796.468C778.697,797.412 775.368,797.893 772.021,797.895ZM758.154,788.323C772.112,795.956 789.879,790.752 797.513,776.794L998.56,409.179C1006.18,395.218 1000.98,377.466 987.032,369.82L510.623,109.274C496.665,101.641 478.899,106.845 471.265,120.803L270.217,488.418C262.603,502.379 267.803,520.131 281.746,527.777L758.154,788.323Z" style="fill:rgb(242,242,242);fill-rule:nonzero;"/>
                    </g>
                    <g transform="matrix(1,0,0,1,-191.889,-99.7015)">
                        <path d="M781.844,669.325C776.363,669.321 770.97,667.94 766.162,665.308L380.999,454.665C370.585,448.982 364.083,438.026 364.083,426.163C364.083,420.708 365.457,415.34 368.079,410.556L488.151,191.005C493.843,180.595 504.8,174.098 516.664,174.098C522.114,174.098 527.478,175.469 532.26,178.085L917.422,388.729C927.832,394.421 934.329,405.378 934.329,417.242C934.329,422.692 932.958,428.056 930.342,432.837L929.903,432.597L930.342,432.837L810.27,652.388C804.623,662.803 793.691,669.316 781.844,669.325Z" style="fill:rgb(242,242,242);fill-rule:nonzero;"/>
                    </g>
                    <g transform="matrix(1,0,0,1,-191.889,-99.7015)">
                        <path d="M769.889,797.799L226.889,797.799C209.067,797.778 194.409,783.12 194.389,765.299L194.389,346.299C194.409,328.477 209.067,313.819 226.889,313.799L769.889,313.799C787.71,313.819 802.369,328.477 802.389,346.298L802.389,765.299C802.369,783.12 787.71,797.778 769.889,797.799Z" style="fill:white;fill-rule:nonzero;"/>
                    </g>
                    <g transform="matrix(1,0,0,1,-191.889,-99.7015)">
                        <path d="M769.889,800.299L226.889,800.299C207.697,800.277 191.91,784.491 191.889,765.299L191.889,346.299C191.91,327.106 207.697,311.32 226.889,311.299L769.889,311.299C789.081,311.32 804.867,327.106 804.889,346.299L804.889,765.299C804.867,784.491 789.081,800.277 769.889,800.299ZM226.889,317.299C210.987,317.316 197.907,330.396 197.889,346.299L197.889,765.299C197.907,781.201 210.987,794.281 226.889,794.299L769.889,794.299C785.791,794.281 798.871,781.201 798.889,765.299L798.889,346.299C798.871,330.396 785.791,317.316 769.889,317.299L226.889,317.299Z" style="fill:rgb(230,230,230);fill-rule:nonzero;"/>
                    </g>
                    <g transform="matrix(1,0,0,1,-191.889,-99.7015)">
                        <path d="M582.892,451.586C570.112,451.577 558.045,457.577 550.34,467.772C546.989,466.33 543.379,465.586 539.731,465.586C525.01,465.586 512.895,477.698 512.891,492.419L623.725,492.419C623.725,492.419 623.725,492.419 623.725,492.419C623.725,470.019 605.292,451.586 582.892,451.586C582.892,451.586 582.892,451.586 582.892,451.586Z" style="fill:rgb(230,230,230);fill-rule:nonzero;"/>
                    </g>
                    <circle cx="148.197" cy="445.96" r="65.757" style="fill:rgb(0,191,166);"/>
                    <g transform="matrix(1,0,0,1,-191.889,-99.7015)">
                        <path d="M725.249,681.179C722.837,681.747 720.367,682.032 717.889,682.029L278.889,682.029C273.483,682.038 268.162,680.671 263.429,678.059L264.599,676.379L313.579,605.849L386.159,501.359L387.219,499.829L398.639,483.389C400.195,481.145 402.758,479.803 405.489,479.803C408.219,479.803 410.783,481.145 412.339,483.389L450.279,537.999L450.279,538.009L472.599,570.149L525.879,646.849L606.689,531.499C608.249,529.268 610.806,527.936 613.529,527.936C616.251,527.936 618.808,529.268 620.369,531.499L672.209,605.489L675.189,609.739L725.249,681.179Z" style="fill:rgb(63,61,86);fill-rule:nonzero;"/>
                    </g>
                    <g transform="matrix(1,0,0,1,-191.889,-99.7015)">
                        <path d="M495.618,519.768C479.852,519.756 464.964,527.159 455.458,539.738C451.324,537.959 446.869,537.041 442.368,537.041C424.206,537.041 409.259,551.984 409.255,570.147L545.997,570.147C545.998,570.147 545.998,570.147 545.998,570.147C545.998,542.51 523.256,519.768 495.619,519.768C495.619,519.768 495.619,519.768 495.618,519.768Z" style="fill:rgb(204,204,204);fill-rule:nonzero;"/>
                    </g>
                    <g transform="matrix(1,0,0,1,-191.889,-99.7015)">
                        <path d="M717.889,683.028L278.889,683.028C278.879,683.028 278.869,683.028 278.859,683.028C260.772,683.028 245.889,668.145 245.889,650.058C245.889,650.048 245.889,650.038 245.889,650.028L245.889,399.789C245.909,381.693 260.793,366.809 278.889,366.789L717.889,366.789C735.984,366.809 750.868,381.693 750.889,399.789L750.889,650.028C750.889,650.041 750.889,650.054 750.889,650.066C750.889,668.149 736.009,683.029 717.927,683.029C717.914,683.029 717.901,683.028 717.889,683.028ZM278.889,368.789C261.89,368.808 247.908,382.79 247.889,399.789L247.889,650.028C247.889,650.038 247.889,650.048 247.889,650.058C247.889,667.048 261.87,681.028 278.86,681.028C278.869,681.028 278.879,681.028 278.889,681.028L717.889,681.028C717.901,681.028 717.913,681.029 717.925,681.029C734.911,681.029 748.889,667.051 748.889,650.065C748.889,650.053 748.889,650.041 748.889,650.028L748.889,399.789C748.87,382.79 734.888,368.808 717.889,368.789L278.889,368.789Z" style="fill:rgb(63,61,86);fill-rule:nonzero;"/>
                    </g>
                </g>
            </g>
        </g>
    </g>
</svg>
